<?xml version="1.0" standalone="no"?>
<!DOCTYPE svg PUBLIC "-//W3C//DTD SVG 20010904//EN"
 "http://www.w3.org/TR/2001/REC-SVG-20010904/DTD/svg10.dtd">
<svg version="1.0" xmlns="http://www.w3.org/2000/svg"
 width="1024.000000pt" height="1024.000000pt" viewBox="0 0 1024.000000 1024.000000"
 preserveAspectRatio="xMidYMid meet">

<g transform="translate(0.000000,1024.000000) scale(0.100000,-0.100000)"
fill="#000000" stroke="none">
<path d="M4360 7969 c-399 -176 -846 -373 -995 -439 -148 -65 -445 -196 -660
-290 -291 -127 -397 -178 -418 -200 -48 -54 -31 -105 52 -148 56 -30 644 -296
1561 -707 267 -120 644 -289 838 -376 246 -111 363 -159 388 -159 26 0 180 65
533 224 915 414 1555 703 1644 744 l87 41 0 -418 0 -418 -26 -13 c-86 -47
-103 -174 -34 -261 l29 -36 -50 -274 c-36 -204 -49 -298 -49 -370 l0 -97 53
-23 c45 -20 68 -24 167 -24 99 0 122 4 168 24 l52 23 0 102 c0 77 -12 164 -49
371 l-49 270 23 25 c30 31 55 90 55 127 -1 44 -35 108 -74 138 l-36 27 0 454
0 453 63 28 c275 123 322 148 339 182 13 25 14 39 6 62 -16 48 136 -24 -1348
632 -1463 647 -1464 647 -1506 646 -28 0 -246 -92 -764 -320z"/>
<path d="M3392 5703 l3 -498 23 -48 c74 -149 286 -272 677 -392 237 -73 453
-168 792 -349 148 -78 210 -106 237 -106 26 0 74 21 173 76 328 180 529 269
848 374 105 34 230 80 279 101 197 84 343 195 393 297 l28 57 3 493 c1 270 0
492 -3 492 -3 0 -368 -164 -811 -365 -444 -201 -827 -370 -853 -376 -100 -22
15 -70 -1582 652 -108 49 -200 89 -203 89 -4 0 -5 -224 -4 -497z"/>
<path d="M2733 4620 c-36 -21 -55 -54 -73 -120 -6 -25 -130 -408 -276 -852
-203 -621 -262 -814 -258 -837 8 -36 47 -79 81 -87 14 -4 82 3 151 15 247 41
306 46 562 46 190 0 289 -5 390 -18 414 -56 755 -151 1083 -301 91 -42 229
-117 225 -122 -2 -2 -28 3 -58 11 -145 39 -679 140 -910 172 -180 25 -772 25
-982 0 -176 -21 -403 -60 -476 -82 -57 -17 -115 -62 -138 -106 -18 -36 -18
-112 1 -149 23 -44 75 -79 137 -91 47 -9 85 -7 244 15 277 38 390 46 679 46
306 0 434 -8 853 -56 618 -69 855 -119 1027 -216 33 -19 55 -23 125 -23 80 0
88 2 145 37 104 63 316 114 695 168 402 56 716 82 1062 87 348 6 505 -3 788
-43 144 -20 186 -23 238 -15 105 16 162 75 162 166 0 73 -46 138 -120 168 -88
37 -415 89 -675 108 -203 15 -676 6 -835 -16 -263 -35 -835 -148 -947 -185
-57 -20 -58 -20 -33 0 14 10 86 50 160 88 621 320 1478 442 2162 307 90 -18
128 -8 167 41 19 24 22 37 18 79 -3 28 -131 417 -285 865 -250 727 -284 818
-311 842 -31 28 -34 28 -161 28 -302 0 -729 -90 -1064 -224 -480 -193 -853
-489 -1101 -874 -23 -35 -47 -62 -57 -62 -9 0 -35 28 -59 63 -184 272 -427
503 -706 673 -217 132 -412 220 -681 308 -406 131 -859 201 -949 146z m327
-264 c350 -42 876 -226 1169 -409 305 -190 543 -440 717 -752 l39 -70 0 -357
c0 -197 -3 -358 -6 -358 -3 0 -14 9 -25 21 -41 45 -237 166 -399 245 -364 177
-734 281 -1250 349 -228 31 -581 30 -812 -2 l-42 -6 43 134 c24 74 123 378
221 677 175 528 180 542 205 542 14 0 77 -7 140 -14z m4303 -98 c57 -166 380
-1098 403 -1161 l24 -68 -123 8 c-235 15 -607 8 -792 -16 -626 -79 -1192 -281
-1547 -552 l-78 -59 0 247 c1 348 9 432 50 513 52 104 137 239 205 325 76 98
244 261 345 336 373 278 950 476 1447 497 l41 2 25 -72z"/>
</g>
</svg>
